<?xml version="1.0" standalone="no"?>
<!DOCTYPE svg PUBLIC "-//W3C//DTD SVG 20010904//EN"
 "http://www.w3.org/TR/2001/REC-SVG-20010904/DTD/svg10.dtd">
<svg version="1.0" xmlns="http://www.w3.org/2000/svg"
 width="1034.000000pt" height="1035.000000pt" viewBox="0 0 1034.000000 1035.000000"
 preserveAspectRatio="xMidYMid meet">

<g transform="translate(0.000000,1035.000000) scale(0.100000,-0.100000)"
fill="#4654a2" stroke="none">
<path d="M3015 10250 c-44 -4 -87 -10 -95 -13 -14 -6 -68 -16 -200 -37 -30 -4
-84 -15 -120 -25 -36 -9 -87 -22 -115 -28 -27 -7 -60 -18 -72 -25 -12 -6 -31
-12 -42 -12 -12 0 -29 -4 -39 -9 -9 -4 -37 -15 -62 -23 -93 -31 -146 -51 -175
-64 -16 -7 -37 -15 -45 -16 -8 -2 -17 -6 -20 -9 -3 -4 -25 -16 -50 -28 -93
-45 -296 -153 -311 -167 -8 -8 -19 -14 -22 -14 -4 0 -26 -13 -49 -30 -22 -16
-47 -30 -55 -30 -7 0 -13 -4 -13 -8 0 -4 -21 -21 -46 -37 -25 -16 -60 -42 -78
-57 -17 -16 -53 -43 -81 -61 -50 -32 -77 -54 -139 -112 -18 -16 -60 -54 -94
-84 -34 -30 -62 -59 -62 -64 0 -5 -26 -35 -58 -66 -31 -32 -86 -92 -122 -135
-36 -43 -73 -85 -82 -94 -10 -9 -18 -20 -18 -25 0 -7 -56 -85 -71 -97 -3 -3
-18 -25 -32 -50 -14 -25 -34 -54 -45 -65 -10 -11 -21 -27 -25 -35 -3 -8 -20
-37 -36 -65 -16 -27 -48 -85 -70 -127 -22 -42 -44 -85 -50 -95 -19 -36 -61
-130 -61 -137 0 -3 -13 -34 -29 -69 -37 -79 -78 -185 -84 -217 -3 -14 -12 -45
-20 -70 -47 -145 -67 -219 -67 -250 -1 -19 -7 -46 -15 -60 -8 -14 -14 -46 -15
-72 0 -26 -4 -50 -10 -53 -5 -3 -10 -39 -10 -78 0 -44 -6 -83 -15 -101 -13
-25 -15 -289 -15 -2168 0 -1678 3 -2144 12 -2161 7 -12 16 -58 20 -102 11
-126 23 -198 36 -222 7 -12 12 -38 12 -57 0 -19 4 -45 9 -58 5 -13 17 -50 26
-83 10 -33 26 -85 36 -116 11 -31 19 -63 19 -71 0 -9 7 -29 15 -44 8 -16 15
-37 15 -46 0 -9 5 -20 10 -23 6 -3 10 -14 10 -23 0 -9 13 -44 29 -77 16 -33
46 -96 66 -140 67 -144 80 -170 92 -183 7 -7 13 -18 13 -24 0 -11 129 -213
154 -240 9 -10 16 -21 16 -25 0 -3 11 -21 25 -39 14 -18 25 -37 25 -42 0 -6 4
-12 9 -14 5 -2 27 -28 50 -58 56 -75 122 -148 281 -309 131 -132 159 -157 265
-237 28 -20 59 -45 70 -55 24 -22 174 -129 181 -129 2 0 23 -12 47 -27 56 -36
177 -102 200 -110 9 -3 17 -9 17 -14 0 -5 6 -9 14 -9 8 0 63 -25 121 -55 59
-30 114 -55 122 -55 8 0 27 -7 41 -14 38 -21 89 -41 152 -61 30 -10 64 -21 75
-25 36 -15 126 -41 168 -50 23 -5 74 -16 112 -25 106 -26 212 -43 406 -65 172
-20 217 -20 2175 -17 2247 4 2068 -1 2484 79 36 7 70 16 75 19 6 4 30 10 55
14 24 4 51 11 60 15 8 4 62 22 120 40 112 35 120 38 192 69 26 12 54 21 62 21
8 0 16 3 18 8 2 4 19 14 38 23 128 60 287 143 360 188 19 12 43 24 53 27 9 4
17 10 17 14 0 4 8 10 18 14 9 3 31 15 47 26 17 11 37 23 45 27 8 4 26 20 40
35 13 15 28 28 33 28 4 0 13 4 20 10 7 5 32 26 57 46 189 150 332 288 483 465
52 61 70 84 87 109 8 12 20 28 25 34 6 6 26 33 45 61 19 27 39 54 43 60 28 36
97 147 97 155 0 6 5 10 10 10 6 0 10 6 10 14 0 8 6 21 13 28 29 33 166 310
203 413 10 28 24 61 31 75 7 14 13 33 13 42 0 9 4 19 9 22 5 3 12 23 16 43 4
21 10 43 15 48 4 6 11 27 14 49 4 21 11 46 15 55 18 34 41 117 41 143 0 15 4
29 9 32 4 3 11 33 14 67 3 34 10 66 16 72 6 6 11 32 11 58 0 26 8 84 18 130
16 79 17 225 17 2229 0 1730 -3 2152 -13 2180 -7 19 -16 71 -19 115 -3 44 -10
85 -15 92 -6 7 -12 40 -15 73 -3 33 -10 63 -14 66 -5 3 -9 17 -9 32 0 15 -7
40 -15 56 -8 15 -15 37 -15 48 0 11 -14 60 -30 110 -16 49 -30 98 -30 109 0
10 -4 19 -10 19 -5 0 -12 16 -16 36 -3 19 -17 58 -30 85 -13 27 -24 53 -24 59
0 6 -11 31 -24 58 -13 26 -46 92 -74 147 -27 55 -59 116 -70 135 -11 19 -30
53 -42 75 -12 22 -37 61 -56 88 -19 26 -34 49 -34 52 0 9 -41 65 -72 99 -15
17 -33 41 -40 55 -7 15 -16 28 -19 31 -7 6 -77 87 -134 156 -49 59 -126 136
-231 231 -119 109 -145 132 -194 172 -25 20 -46 39 -48 44 -2 4 -9 7 -16 7 -7
0 -24 9 -37 21 -13 11 -34 28 -45 38 -12 10 -52 38 -90 62 -38 24 -78 50 -89
57 -11 6 -27 15 -35 19 -8 4 -42 23 -75 43 -62 37 -169 90 -181 90 -3 0 -48
20 -98 44 -168 80 -348 145 -461 166 -27 5 -77 18 -110 29 -33 11 -75 21 -94
21 -19 0 -48 4 -65 9 -17 6 -71 18 -121 28 -85 17 -209 18 -2230 19 -1177 1
-2176 -2 -2220 -6z m2370 -2176 c135 -43 199 -81 295 -173 136 -132 192 -228
225 -384 13 -63 15 -380 15 -2572 0 -1408 -4 -2517 -9 -2538 -18 -78 -77 -135
-174 -169 -47 -16 -95 -18 -562 -18 -472 1 -514 2 -565 19 -63 22 -133 80
-158 131 -16 33 -17 198 -17 2555 0 2475 0 2521 20 2595 11 41 22 77 25 80 3
3 14 28 24 55 51 138 190 286 341 363 132 67 187 80 335 81 109 1 136 -2 205
-25z m-2285 -1439 c98 -20 190 -47 190 -56 0 -4 12 -10 26 -13 28 -7 81 -44
123 -83 13 -13 27 -23 32 -23 11 0 69 -57 69 -67 0 -5 10 -20 23 -33 56 -64
117 -172 117 -208 0 -10 5 -23 12 -30 7 -7 16 -38 22 -69 13 -81 19 -3654 6
-3667 -5 -5 -10 -20 -10 -31 0 -30 -75 -97 -130 -118 -57 -21 -165 -22 -213
-2 -20 8 -56 15 -81 15 -25 0 -48 4 -51 10 -3 6 -18 10 -33 10 -15 0 -36 6
-47 13 -11 8 -35 17 -52 20 -61 12 -304 142 -338 181 -5 6 -27 20 -49 31 -21
11 -50 35 -64 55 -14 19 -35 44 -46 55 -68 66 -206 255 -206 282 0 7 -3 13 -8
13 -18 0 -102 222 -102 272 0 14 -5 28 -10 30 -29 9 -33 172 -37 1453 -2 799
0 1308 6 1320 5 11 12 41 15 67 3 26 10 56 14 65 5 10 24 50 43 88 19 39 36
72 39 75 3 3 21 25 40 50 43 58 161 170 177 170 7 0 13 4 13 9 0 5 8 11 18 15
9 3 24 10 32 15 20 14 96 46 140 59 19 6 55 18 80 26 60 19 148 19 240 1z
m4390 -1465 c41 -6 89 -15 105 -21 54 -20 160 -72 173 -86 7 -7 17 -13 21 -13
4 0 46 -37 93 -82 85 -84 163 -189 175 -237 3 -14 9 -30 13 -36 4 -5 11 -28
15 -50 4 -22 10 -44 15 -50 19 -24 32 -381 26 -730 -6 -390 -13 -534 -26 -550
-5 -6 -12 -31 -15 -55 -4 -25 -10 -54 -15 -65 -5 -11 -11 -31 -13 -45 -10 -53
-65 -187 -100 -245 -65 -106 -128 -191 -187 -255 -14 -15 -36 -41 -50 -58 -28
-34 -155 -129 -245 -183 -68 -42 -220 -109 -245 -109 -9 0 -20 -4 -26 -10 -11
-11 -78 -27 -159 -39 -27 -4 -60 -12 -72 -19 -32 -18 -140 -14 -203 7 -41 15
-65 31 -95 66 l-40 47 -3 1012 c-3 991 2 1196 29 1276 18 50 73 164 82 168 4
2 7 9 7 16 0 26 174 211 224 238 201 108 320 133 516 108z"/>
</g>
</svg>
