<?xml version="1.0" standalone="no"?>
<!DOCTYPE svg PUBLIC "-//W3C//DTD SVG 20010904//EN"
 "http://www.w3.org/TR/2001/REC-SVG-20010904/DTD/svg10.dtd">
<svg version="1.0" xmlns="http://www.w3.org/2000/svg"
 width="816.000000pt" height="734.000000pt" viewBox="0 0 816.000000 734.000000"
 preserveAspectRatio="xMidYMid meet">

<g transform="translate(0.000000,734.000000) scale(0.100000,-0.100000)"
fill="#4654a2" stroke="none">
<path d="M2660 6890 c-85 -12 -228 -38 -263 -49 -18 -5 -75 -22 -127 -37 -168
-48 -450 -189 -597 -297 -88 -64 -309 -266 -363 -332 -121 -147 -166 -212
-245 -350 -83 -147 -161 -335 -195 -475 -80 -318 -75 -202 -75 -1715 0 -1236
1 -1359 17 -1455 28 -166 37 -208 70 -315 107 -350 277 -635 533 -890 359
-358 794 -561 1320 -615 63 -6 557 -10 1336 -10 1339 0 1383 2 1619 55 199 46
319 90 520 193 137 70 238 134 307 194 24 21 49 38 54 38 14 0 259 249 310
316 152 198 278 430 343 629 20 61 40 124 46 141 15 45 30 118 48 229 13 88
15 272 16 1485 0 1467 2 1394 -42 1625 -29 149 -126 399 -223 575 -94 170
-282 405 -430 536 -166 149 -452 325 -634 390 -194 70 -354 109 -550 134 -93
11 -2708 11 -2795 0z m1573 -1409 c132 -51 237 -164 287 -306 l25 -70 3 -1580
c2 -869 0 -1604 -3 -1633 -8 -66 -54 -122 -113 -140 -54 -16 -675 -17 -723 -1
-43 15 -88 55 -105 96 -22 50 -21 3217 1 3299 23 87 52 140 118 211 67 71 120
106 205 134 79 26 224 21 305 -10z m1337 -916 c150 -40 270 -140 338 -282 l37
-78 3 -851 c3 -845 1 -896 -32 -1019 -44 -162 -177 -344 -321 -440 -103 -67
-144 -88 -230 -113 -204 -59 -270 -57 -335 13 l-25 27 0 1191 0 1192 23 56
c91 226 331 360 542 304z m-2817 -940 c200 -42 352 -213 378 -425 6 -53 9
-329 7 -727 -3 -633 -3 -642 -24 -670 -31 -41 -71 -58 -139 -57 -195 3 -438
117 -566 266 -89 103 -144 193 -173 280 -50 150 -51 163 -51 568 0 378 0 386
23 453 53 152 213 291 365 316 77 13 105 12 180 -4z"/>
</g>
</svg>
